# File created by Blade
# Date/Time:  Wed Apr 08 17:24:25 2015
#---------------------------------------------------------
:version 1.10
:name HOM
:units
  mass 1.0
  length 1.000000
  angle deg
:documentation
     Acclaim Skeleton File
:root
   axis xyz
   order TX TY TZ RX RY RZ
   position 0.000000 0.000000 0.000000
   orientation 0 0 0
:bonedata
   begin
      id 1
      name Spine_dum
      direction 0.000000 1.000000 0.000000
      length 5.893853
      axis 0.0 0.0 0.0 xyz
   end
   begin
      id 2
      name LeftUpLeg_dum
      direction 1.000000 0.000000 0.000000
      length 3.697939
      axis 0.0 0.0 0.0 xyz
   end
   begin
      id 3
      name RightUpLeg_dum
      direction -1.000000 0.000000 0.000000
      length 3.697939
      axis 0.0 0.0 0.0 xyz
   end
   begin
      id 4
      name Spine
      direction 0.000000 1.000000 0.000000
      length 0.000000
      axis 0.0 0.0 0.0 xyz
      dof rx ry rz
   end
   begin
      id 5
      name Spine_dum1
      direction 0.000000 1.000000 0.000000
      length 16.447146
      axis 0.0 0.0 0.0 xyz
   end
   begin
      id 6
      name Spine_dum2
      direction 0.000000 1.000000 0.000000
      length 10.900383
      axis 0.0 0.0 0.0 xyz
   end
   begin
      id 7
      name Spine_dum3
      direction 0.000000 1.000000 0.000000
      length 10.900383
      axis 0.0 0.0 0.0 xyz
   end
   begin
      id 8
      name Head
      direction 0.000000 1.000000 0.000000
      length 4.527550
      axis 0.0 0.0 0.0 xyz
      dof rx ry rz
   end
   begin
      id 9
      name LeftShoulder
      direction 1.000000 0.000000 0.000000
      length 8.219464
      axis 0.0 0.0 -90.0 xyz
      dof rx ry rz
   end
   begin
      id 10
      name LeftArm
      direction 1.000000 0.000000 0.000000
      length 11.094937
      axis 0.0 0.0 -90.0 xyz
      dof rx ry rz
   end
   begin
      id 11
      name LeftForeArm
      direction 1.000000 0.000000 0.000000
      length 9.103875
      axis 0.0 0.0 -90.0 xyz
      dof ry rz rx
   end
   begin
      id 12
      name LeftHand
      direction 0.000000 0.000000 0.000000
      length 0.000000
      axis 0.0 0.0 -90.0 xyz
      dof rx ry rz
   end
   begin
      id 13
      name LeftHand_dum1
      direction 0.000000 0.000000 0.000000
      length 0.000000
      axis 0.0 0.0 -90.0 xyz
   end
   begin
      id 14
      name LeftHand_dum2
      direction 1.000000 0.000000 0.000000
      length 3.937000
      axis 0.0 0.0 -90.0 xyz
   end
   begin
      id 15
      name LeftHandThumb1
      direction 0.000000 0.000000 1.000000
      length 3.937000
      axis 0.0 0.0 -90.0 xyz
      dof rx rz ry
   end
   begin
      id 16
      name RightShoulder
      direction -1.000000 0.000000 0.000000
      length 8.219464
      axis 0.0 0.0 90.0 xyz
      dof rx ry rz
   end
   begin
      id 17
      name RightArm
      direction -1.000000 0.000000 0.000000
      length 11.094937
      axis 0.0 0.0 90.0 xyz
      dof rx ry rz
   end
   begin
      id 18
      name RightForeArm
      direction -1.000000 0.000000 0.000000
      length 9.103875
      axis 0.0 0.0 90.0 xyz
      dof ry rz rx
   end
   begin
      id 19
      name RightHand
      direction 0.000000 0.000000 0.000000
      length 0.000000
      axis 0.0 0.0 90.0 xyz
      dof rx ry rz
   end
   begin
      id 20
      name RightHand_dum1
      direction 0.000000 0.000000 0.000000
      length 0.000000
      axis 0.0 0.0 90.0 xyz
   end
   begin
      id 21
      name RightHand_dum2
      direction -1.000000 0.000000 0.000000
      length 3.937000
      axis 0.0 0.0 90.0 xyz
   end
   begin
      id 22
      name RightHandThumb1
      direction 0.000000 0.000000 1.000000
      length 3.937000
      axis 0.0 0.0 90.0 xyz
      dof rx rz ry
   end
   begin
      id 23
      name LeftUpLeg
      direction 0.000000 -1.000000 0.000000
      length 16.181467
      axis 0.0 0.0 0.0 xyz
      dof rx ry rz
   end
   begin
      id 24
      name LeftLeg
      direction 0.000000 -1.000000 0.000000
      length 16.501392
      axis 0.0 0.0 0.0 xyz
      dof rx ry rz
   end
   begin
      id 25
      name LeftFoot
      direction 0.000000 -0.258819 0.965926
      length 6.408245
      axis 15.0 0.0 0.0 xyz
      dof rx ry rz
   end
   begin
      id 26
      name LeftToeBase
      direction 0.000000 0.000000 1.000000
      length 2.952750
      axis 0.0 0.0 0.0 xyz
      dof rx ry rz
   end
   begin
      id 27
      name RightUpLeg
      direction 0.000000 -1.000000 0.000000
      length 16.181467
      axis 0.0 0.0 0.0 xyz
      dof rx ry rz
   end
   begin
      id 28
      name RightLeg
      direction 0.000000 -1.000000 0.000000
      length 16.501392
      axis 0.0 0.0 0.0 xyz
      dof rx ry rz
   end
   begin
      id 29
      name RightFoot
      direction 0.000000 -0.258819 0.965926
      length 6.408245
      axis 15.0 0.0 0.0 xyz
      dof rx ry rz
   end
   begin
      id 30
      name RightToeBase
      direction 0.000000 0.000000 1.000000
      length 2.952750
      axis 0.0 0.0 0.0 xyz
      dof rx ry rz
   end
:hierarchy
   begin
      root Spine_dum LeftUpLeg_dum RightUpLeg_dum
      Spine_dum Spine
      LeftUpLeg_dum LeftUpLeg
      RightUpLeg_dum RightUpLeg
      Spine Spine_dum1 Spine_dum2 Spine_dum3
      Spine_dum1 Head
      Spine_dum2 LeftShoulder
      Spine_dum3 RightShoulder
      LeftShoulder LeftArm
      LeftArm LeftForeArm
      LeftForeArm LeftHand
      LeftHand LeftHand_dum1 LeftHand_dum2
      LeftHand_dum1 LeftHandThumb1
      RightShoulder RightArm
      RightArm RightForeArm
      RightForeArm RightHand
      RightHand RightHand_dum1 RightHand_dum2
      RightHand_dum1 RightHandThumb1
      LeftUpLeg LeftLeg
      LeftLeg LeftFoot
      LeftFoot LeftToeBase
      RightUpLeg RightLeg
      RightLeg RightFoot
      RightFoot RightToeBase
   end

# File created by Blade
# Date/Time:  Wed Apr 08 17:24:36 2015
# Frame Rate: 120.000 fps
#------------------------------------------------------
:FULLY-SPECIFIED
:DEGREES
475
root 7.066213 36.476410 2.576692 -22.385555 -53.927986 -20.243995
Spine 49.770636 -4.382433 8.542883
Head -9.755340 25.382486 0.652919
LeftShoulder 9.807678 6.851051 20.709035
LeftArm 64.028059 39.957662 -56.639668
LeftForeArm -14.379074 -0.000000 39.417536
LeftHand -11.973741 -0.000000 -9.364127
LeftHandThumb1 -26.253704 0.000000 33.147579
RightShoulder -7.177930 -38.145484 -3.866070
RightArm 77.110549 -4.233899 42.174451
RightForeArm 45.131419 -0.000000 35.435705
RightHand -0.073710 -0.000000 26.898857
RightHandThumb1 -24.326973 -0.000000 -32.862282
LeftUpLeg 37.073052 20.812878 24.238240
LeftLeg 20.908417 -0.000000 -0.000000
LeftFoot -19.289259 4.579393 -2.115949
LeftToeBase 6.248883 -0.000000 -0.000000
RightUpLeg -85.834822 -5.421982 24.172726
RightLeg 149.399253 -0.000000 -0.000000
RightFoot 12.294203 -4.579922 15.766891
RightToeBase -5.026740 -0.000000 0.000000
476
root 7.085145 36.481278 2.579385 -22.150399 -54.197659 -20.436307
Spine 49.764097 -4.380281 8.517624
Head -9.746811 25.203333 0.744114
LeftShoulder 9.857544 6.849104 20.723834
LeftArm 64.066717 39.939454 -56.563971
LeftForeArm -14.482429 -0.000000 39.578329
LeftHand -12.094947 -0.000000 -9.242540
LeftHandThumb1 -26.253704 0.000000 33.147579
RightShoulder -6.990774 -38.035287 -4.047474
RightArm 77.245619 -4.317428 42.070513
RightForeArm 45.749951 0.000000 34.941171
RightHand -0.152924 0.000000 26.131545
RightHandThumb1 -24.326973 -0.000000 -32.862282
LeftUpLeg 37.080072 20.959343 24.355455
LeftLeg 20.877216 -0.000000 -0.000000
LeftFoot -19.380681 4.621717 -2.463128
LeftToeBase 6.505976 -0.000000 -0.000000
RightUpLeg -85.932375 -5.496610 24.109866
RightLeg 149.431578 -0.000000 -0.000000
RightFoot 12.692427 -4.342671 15.601513
RightToeBase -5.066105 -0.000000 0.000000
477
root 7.101941 36.487254 2.578921 -21.895744 -54.482746 -20.648872
Spine 49.755464 -4.374403 8.486929
Head -9.721328 25.031440 0.843433
LeftShoulder 9.867958 6.886672 20.702892
LeftArm 64.154675 39.919647 -56.387151
LeftForeArm -14.447050 -0.000000 39.746219
LeftHand -12.149597 -0.000000 -9.149293
LeftHandThumb1 -26.253704 0.000000 33.147579
RightShoulder -6.766780 -37.943192 -4.219776
RightArm 77.288372 -4.363544 42.113084
RightForeArm 45.709800 -0.000000 34.598235
RightHand 0.105227 -0.000000 25.499332
RightHandThumb1 -24.326973 -0.000000 -32.862282
LeftUpLeg 37.100264 21.131889 24.511610
LeftLeg 20.836485 -0.000000 -0.000000
LeftFoot -19.460309 4.654469 -2.786615
LeftToeBase 6.772610 -0.000000 -0.000000
RightUpLeg -86.014837 -5.518569 24.066036
RightLeg 149.443190 -0.000000 -0.000000
RightFoot 12.946620 -4.164716 15.511401
RightToeBase -5.055215 -0.000000 0.000000
478
root 7.115907 36.495414 2.574479 -21.558920 -54.807495 -20.955805
Spine 49.743297 -4.346860 8.522391
Head -9.699803 24.851996 0.931269
LeftShoulder 9.888322 6.913872 20.676960
LeftArm 64.169516 39.879395 -56.276557
LeftForeArm -14.499427 0.000000 39.973763
LeftHand -12.349504 -0.000000 -9.089091
LeftHandThumb1 -26.253704 0.000000 33.147579
RightShoulder -6.640037 -37.917376 -4.311025
RightArm 77.358628 -4.400512 42.148341
RightForeArm 45.729401 -0.000000 34.403244
RightHand 0.448438 -0.000000 24.499700
RightHandThumb1 -24.326973 -0.000000 -32.862282
LeftUpLeg 37.138351 21.323890 24.760706
LeftLeg 20.795258 -0.000000 -0.000000
LeftFoot -19.555645 4.633685 -3.102581
LeftToeBase 7.090181 -0.000000 -0.000000
RightUpLeg -86.074413 -5.488240 24.142689
RightLeg 149.412172 -0.000000 -0.000000
RightFoot 13.060264 -4.212740 15.451724
RightToeBase -5.039862 -0.000000 0.000000
479
root 7.129850 36.504848 2.566417 -21.173840 -55.162017 -21.313259
Spine 49.737148 -4.316289 8.588739
Head -9.704088 24.690820 0.963665
LeftShoulder 9.870535 6.939120 20.618299
LeftArm 64.087671 39.828339 -56.283346
LeftForeArm -14.476153 -0.000000 40.184881
LeftHand -12.463558 -0.000000 -9.052704
LeftHandThumb1 -26.253704 0.000000 33.147579
RightShoulder -6.584224 -37.952645 -4.348412
RightArm 77.459003 -4.416007 42.260200
RightForeArm 45.556152 -0.000000 34.259437
RightHand 0.721672 -0.000000 23.624025
RightHandThumb1 -24.326973 -0.000000 -32.862282
LeftUpLeg 37.182664 21.532623 25.055848
LeftLeg 20.758308 -0.000000 -0.000000
LeftFoot -19.621385 4.586840 -3.387461
LeftToeBase 7.267326 -0.000000 -0.000000
RightUpLeg -86.122334 -5.415437 24.246506
RightLeg 149.349179 -0.000000 -0.000000
RightFoot 13.075035 -4.350347 15.577884
RightToeBase -4.906974 -0.000000 0.000000
480
root 7.139358 36.516960 2.559882 -20.819005 -55.452803 -21.703156
Spine 49.793279 -4.362681 8.630695
Head -9.746223 24.567758 0.950689
LeftShoulder 9.821041 6.982311 20.561315
LeftArm 63.970689 39.772230 -56.342858
LeftForeArm -14.404997 -0.000000 40.390025
LeftHand -12.508330 -0.000000 -8.909091
LeftHandThumb1 -26.253704 0.000000 33.147579
RightShoulder -6.510159 -37.930665 -4.404332
RightArm 77.434942 -4.471619 42.526869
RightForeArm 45.541274 -0.000000 34.171800
RightHand 1.286672 -0.000000 22.493097
RightHandThumb1 -24.326973 -0.000000 -32.862282
LeftUpLeg 37.250765 21.645955 25.349349
LeftLeg 20.737395 -0.000000 -0.000000
LeftFoot -19.679500 4.539608 -3.622747
LeftToeBase 7.424171 -0.000000 -0.000000
RightUpLeg -86.113172 -5.446545 24.339487
RightLeg 149.268056 -0.000000 -0.000000
RightFoot 13.024987 -4.505245 15.726193
RightToeBase -4.833447 -0.000000 0.000000
481
root 7.151920 36.530805 2.550557 -20.434385 -55.772697 -22.096353
Spine 49.829501 -4.371800 8.691304
Head -9.810291 24.455280 0.886562
LeftShoulder 9.782098 7.052824 20.467872
LeftArm 63.896780 39.693863 -56.295667
LeftForeArm -14.285729 -0.000000 40.648519
LeftHand -12.586858 -0.000000 -8.719330
LeftHandThumb1 -26.253704 0.000000 33.147579
RightShoulder -6.463940 -37.939798 -4.431560
RightArm 77.385514 -4.495048 42.913180
RightForeArm 45.711023 -0.000000 34.027622
RightHand 2.072047 0.000000 21.447141
RightHandThumb1 -24.326973 -0.000000 -32.862282
LeftUpLeg 37.289160 21.807944 25.676248
LeftLeg 20.762801 -0.000000 -0.000000
LeftFoot -19.721175 4.395372 -3.899191
LeftToeBase 7.668449 -0.000000 -0.000000
RightUpLeg -86.145388 -5.387326 24.470933
RightLeg 149.204106 -0.000000 -0.000000
RightFoot 12.876350 -4.719273 15.796433
RightToeBase -4.687675 -0.000000 0.000000
482
root 7.162189 36.543472 2.543563 -20.095912 -56.061617 -22.427584
Spine 49.842410 -4.372196 8.704927
Head -9.842105 24.362427 0.855765
LeftShoulder 9.738753 7.148737 20.416433
LeftArm 63.832822 39.607085 -56.314099
LeftForeArm -14.183034 0.000000 40.867573
LeftHand -12.632509 -0.000000 -8.553041
LeftHandThumb1 -26.253704 0.000000 33.147579
RightShoulder -6.384291 -37.999080 -4.447183
RightArm 77.224052 -4.465573 43.557698
RightForeArm 45.757906 -0.000000 33.936164
RightHand 2.828270 -0.000000 20.613126
RightHandThumb1 -24.326973 -0.000000 -32.862282
LeftUpLeg 37.319147 22.026677 26.042075
LeftLeg 20.848649 -0.000000 -0.000000
LeftFoot -19.752446 4.150064 -4.143563
LeftToeBase 7.816371 -0.000000 -0.000000
RightUpLeg -86.178259 -5.349755 24.550559
RightLeg 149.166177 -0.000000 -0.000000
RightFoot 12.624800 -4.875939 15.889234
RightToeBase -4.537780 -0.000000 0.000000
483
root 7.173470 36.563062 2.529345 -19.689597 -56.381733 -22.885603
Spine 49.929893 -4.366843 8.803529
Head -9.933385 24.300640 0.779748
LeftShoulder 9.689898 7.159491 20.364272
LeftArm 63.752605 39.555177 -56.363136
LeftForeArm -14.139696 -0.000000 41.060831
LeftHand -12.745493 -0.000000 -8.398035
LeftHandThumb1 -26.253704 0.000000 33.147579
RightShoulder -6.284343 -38.084605 -4.429485
RightArm 77.000861 -4.317281 44.277161
RightForeArm 45.900723 -0.000000 33.853076
RightHand 3.124172 -0.000000 20.279850
RightHandThumb1 -24.326973 -0.000000 -32.862282
LeftUpLeg 37.369907 22.216601 26.512383
LeftLeg 20.979676 -0.000000 -0.000000
LeftFoot -19.743207 3.881275 -4.284613
LeftToeBase 7.863455 -0.000000 -0.000000
RightUpLeg -86.140824 -5.308405 24.632877
RightLeg 149.096191 -0.000000 -0.000000
RightFoot 12.360603 -4.887185 16.063566
RightToeBase -4.493105 -0.000000 0.000000
484
root 7.178337 36.578550 2.531985 -19.506035 -56.518468 -23.131267
Spine 50.001722 -4.441824 8.757235
Head -9.989454 24.198421 0.720117
LeftShoulder 9.651529 7.205652 20.355944
LeftArm 63.706345 39.516040 -56.430543
LeftForeArm -14.049972 -0.000000 41.179467
LeftHand -12.783137 -0.000000 -8.444914
LeftHandThumb1 -26.253704 0.000000 33.147579
RightShoulder -6.294768 -38.237999 -4.311071
RightArm 76.815721 -4.187269 45.035504
RightForeArm 46.039715 -0.000000 33.658200
RightHand 3.283701 -0.000000 20.074373
RightHandThumb1 -24.326973 -0.000000 -32.862282
LeftUpLeg 37.391917 22.234819 26.745509
LeftLeg 21.119741 -0.000000 -0.000000
LeftFoot -19.704272 3.655853 -4.381209
LeftToeBase 7.817614 -0.000000 -0.000000
RightUpLeg -86.150447 -5.374077 24.597478
RightLeg 149.129263 -0.000000 -0.000000
RightFoot 12.105309 -4.950899 15.848471
RightToeBase -4.548240 -0.000000 0.000000
485
root 7.183954 36.594212 2.536728 -19.370430 -56.611479 -23.307259
Spine 50.032353 -4.492564 8.694316
Head -9.994259 24.091360 0.698999
LeftShoulder 9.650543 7.239117 20.362616
LeftArm 63.738521 39.507584 -56.412971
LeftForeArm -14.044593 -0.000000 41.234570
LeftHand -12.702380 -0.000000 -8.437008
LeftHandThumb1 -26.253704 0.000000 33.147579
RightShoulder -6.406693 -38.517251 -4.037033
RightArm 76.657786 -3.981570 45.241967
RightForeArm 46.824896 -0.000000 33.550931
RightHand 3.525645 0.000000 19.606217
RightHandThumb1 -24.326973 -0.000000 -32.862282
LeftUpLeg 37.333016 22.148994 26.838982
LeftLeg 21.302045 -0.000000 -0.000000
LeftFoot -19.631570 3.443686 -4.483230
LeftToeBase 7.664930 -0.000000 -0.000000
RightUpLeg -86.186187 -5.456197 24.469826
RightLeg 149.189528 -0.000000 -0.000000
RightFoot 11.905178 -4.860211 15.545287
RightToeBase -4.596062 -0.000000 0.000000
486
root 7.174372 36.620460 2.543899 -19.267406 -56.643571 -23.643843
Spine 50.210784 -4.668742 8.681743
Head -9.982326 24.010496 0.655458
LeftShoulder 9.561619 7.326817 20.308875
LeftArm 63.819874 39.456411 -56.300682
LeftForeArm -13.518844 -0.000000 41.344191
LeftHand -12.633572 -0.000000 -8.311345
LeftHandThumb1 -26.253704 0.000000 33.147579
RightShoulder -6.412343 -38.732693 -3.902534
RightArm 76.466820 -3.825471 45.940237
RightForeArm 47.285633 -0.000000 33.236555
RightHand 3.417665 -0.000000 19.687545
RightHandThumb1 -24.326973 -0.000000 -32.862282
LeftUpLeg 37.424572 21.889603 27.083622
LeftLeg 21.471122 -0.000000 -0.000000
LeftFoot -19.513270 3.165381 -4.580673
LeftToeBase 7.332770 -0.000000 -0.000000
RightUpLeg -86.008069 -5.636510 24.522950
RightLeg 149.172953 -0.000000 -0.000000
RightFoot 11.805389 -5.032882 14.969941
RightToeBase -4.921667 -0.000000 0.000000
487
root 7.176797 36.638326 2.554229 -19.168825 -56.716500 -23.784600
Spine 50.218917 -4.730695 8.637514
Head -9.946924 23.890646 0.587487
LeftShoulder 9.516813 7.326164 20.230700
LeftArm 63.888103 39.511231 -56.179166
LeftForeArm -13.417210 0.000000 41.399294
LeftHand -12.674267 0.000000 -8.333645
LeftHandThumb1 -26.253704 0.000000 33.147579
RightShoulder -6.449247 -38.938454 -3.741539
RightArm 76.238136 -3.684939 46.526682
RightForeArm 47.702363 -0.000000 32.892624
RightHand 3.304704 -0.000000 19.785078
RightHandThumb1 -24.326973 -0.000000 -32.862282
LeftUpLeg 37.373278 21.681873 27.100536
LeftLeg 21.644580 -0.000000 -0.000000
LeftFoot -19.397176 2.865485 -4.685139
LeftToeBase 7.007385 -0.000000 -0.000000
RightUpLeg -86.041858 -5.734292 24.447998
RightLeg 149.223075 -0.000000 -0.000000
RightFoot 11.692382 -5.232781 14.888990
RightToeBase -5.152106 -0.000000 0.000000
